<svg width="200" height="200" viewBox="0 0 200 200" fill="none" xmlns="http://www.w3.org/2000/svg">
  <defs>
    <linearGradient id="gradPrimary" x1="48" y1="22" x2="172" y2="158" gradientUnits="userSpaceOnUse">
      <stop offset="0" stop-color="#1F73FF" />
      <stop offset="1" stop-color="#6AE3C9" />
    </linearGradient>
    <linearGradient id="gradSecondary" x1="24" y1="46" x2="144" y2="174" gradientUnits="userSpaceOnUse">
      <stop offset="0" stop-color="#0F172A" />
      <stop offset="1" stop-color="#1E293B" />
    </linearGradient>
    <linearGradient id="gradAccent" x1="80" y1="120" x2="140" y2="172" gradientUnits="userSpaceOnUse">
      <stop offset="0" stop-color="#A5B4FC" />
      <stop offset="1" stop-color="#38BDF8" />
    </linearGradient>
  </defs>

  <rect x="32" y="44" width="112" height="128" rx="20" fill="url(#gradSecondary)" opacity="0.9" />
  <rect x="52" y="28" width="120" height="132" rx="20" fill="url(#gradPrimary)" />
  <rect x="64" y="60" width="96" height="18" rx="9" fill="#FFFFFF" opacity="0.85" />
  <rect x="64" y="90" width="72" height="12" rx="6" fill="#FFFFFF" opacity="0.7" />
  <rect x="64" y="110" width="88" height="12" rx="6" fill="#FFFFFF" opacity="0.7" />

  <path
    d="M76 130C76 122.268 82.268 116 90 116H134C141.732 116 148 122.268 148 130V150C148 157.732 141.732 164 134 164H90C82.268 164 76 157.732 76 150V130Z"
    fill="url(#gradAccent)" />
  <path d="M90 140L102 152L134 120" stroke="#0B1021" stroke-width="8" stroke-linecap="round" stroke-linejoin="round" />
  <circle cx="150" cy="62" r="14" fill="#0EA5E9" />
  <circle cx="150" cy="62" r="6" fill="#ECFEFF" />
</svg>
